<svg xmlns="http://www.w3.org/2000/svg" viewBox="0 0 900 360" width="100%" height="360" style="background:#0f172a; font-family:sans-serif;">
      <text x="450" y="30" fill="#f8fafc" font-size="18" font-weight="bold" text-anchor="middle">P7: Request-Progress-Aligned Evolution (0% to 100% Request Completion)</text>
      
      <!-- Panel 1: Instantaneous IOPS across Progress -->
      <g transform="translate(50, 60)">
        <rect width="380" height="260" rx="8" fill="#1e293b" stroke="#334155"/>
        <text x="190" y="25" fill="#38bdf8" font-size="13" font-weight="bold" text-anchor="middle">Instantaneous IOPS vs Request Progress</text>
        <line x1="30" y1="200" x2="370" y2="200" stroke="#64748b"/>
        <line x1="30" y1="40" x2="30" y2="200" stroke="#64748b"/>
        <polyline fill="none" stroke="#38bdf8" stroke-width="2" points="33.4,199.4 36.8,199.4 40.2,199.4 43.6,199.4 47.0,199.4 50.4,199.4 53.8,199.4 57.2,199.4 60.6,199.4 64.0,199.4 67.4,199.4 70.8,199.4 74.2,199.4 77.6,199.4 81.0,199.4 84.4,199.4 87.8,199.4 91.2,199.4 94.6,199.4 98.0,199.4 101.4,199.4 104.8,199.4 108.2,199.4 111.6,199.4 115.0,199.4 118.4,199.4 121.8,199.4 125.2,199.4 128.6,199.4 132.0,199.4 135.4,199.4 138.8,199.4 142.2,199.4 145.6,199.4 149.0,199.4 152.4,199.4 155.8,199.4 159.2,199.4 162.6,199.4 166.0,199.4 169.4,199.4 172.8,199.4 176.2,199.4 179.6,199.4 183.0,199.4 186.4,199.4 189.8,199.4 193.2,199.4 196.6,199.4 200.0,199.4 203.4,199.4 206.8,199.4 210.2,199.4 213.6,199.4 217.0,199.4 220.4,199.4 223.8,199.4 227.2,199.4 230.6,199.4 234.0,199.4 237.4,199.4 240.8,199.4 244.2,199.4 247.6,199.4 251.0,199.4 254.4,199.4 257.8,199.4 261.2,199.4 264.6,199.4 268.0,199.4 271.4,199.4 274.8,199.4 278.2,199.4 281.6,199.4 285.0,199.4 288.4,199.4 291.8,199.4 295.2,199.4 298.6,199.4 302.0,199.4 305.4,199.4 308.8,199.4 312.2,199.4 315.6,199.4 319.0,199.4 322.4,199.4 325.8,199.4 329.2,199.4 332.6,199.4 336.0,199.4 339.4,199.4 342.8,199.4 346.2,199.4 349.6,199.4 353.0,199.4 356.4,199.4 359.8,199.4 363.2,199.4 366.6,199.4 370.0,199.4"/><polyline fill="none" stroke="#10b981" stroke-width="2" points="33.4,199.4 36.8,199.4 40.2,199.4 43.6,199.4 47.0,199.4 50.4,199.4 53.8,199.4 57.2,199.4 60.6,199.4 64.0,199.4 67.4,199.4 70.8,199.4 74.2,199.4 77.6,199.4 81.0,199.4 84.4,199.4 87.8,199.4 91.2,199.4 94.6,199.4 98.0,199.4 101.4,199.4 104.8,199.4 108.2,199.4 111.6,199.4 115.0,199.4 118.4,199.4 121.8,199.4 125.2,199.4 128.6,199.4 132.0,199.4 135.4,199.4 138.8,199.4 142.2,199.4 145.6,199.4 149.0,199.4 152.4,199.4 155.8,199.4 159.2,199.4 162.6,199.4 166.0,199.4 169.4,199.4 172.8,199.4 176.2,199.4 179.6,199.4 183.0,199.4 186.4,199.4 189.8,199.4 193.2,199.4 196.6,199.4 200.0,199.4 203.4,199.4 206.8,199.4 210.2,199.4 213.6,199.4 217.0,199.4 220.4,199.4 223.8,199.4 227.2,199.4 230.6,199.4 234.0,199.4 237.4,199.4 240.8,199.4 244.2,199.4 247.6,199.4 251.0,199.4 254.4,199.4 257.8,199.4 261.2,199.4 264.6,199.4 268.0,199.4 271.4,199.4 274.8,199.4 278.2,199.4 281.6,199.4 285.0,199.4 288.4,199.4 291.8,199.4 295.2,199.4 298.6,199.4 302.0,199.4 305.4,199.4 308.8,199.4 312.2,199.4 315.6,199.4 319.0,199.4 322.4,199.4 325.8,199.4 329.2,199.4 332.6,199.4 336.0,199.4 339.4,199.4 342.8,199.4 346.2,199.4 349.6,199.4 353.0,199.4 356.4,199.4 359.8,199.4 363.2,199.4 366.6,199.4 370.0,199.4"/><polyline fill="none" stroke="#f59e0b" stroke-width="2" points="33.4,199.4 36.8,199.4 40.2,199.4 43.6,199.4 47.0,199.4 50.4,199.4 53.8,199.4 57.2,199.4 60.6,199.4 64.0,199.4 67.4,199.4 70.8,199.4 74.2,199.4 77.6,199.4 81.0,199.4 84.4,199.4 87.8,199.4 91.2,199.4 94.6,199.4 98.0,199.4 101.4,199.4 104.8,199.4 108.2,199.4 111.6,199.4 115.0,199.4 118.4,199.4 121.8,199.4 125.2,199.4 128.6,199.4 132.0,199.4 135.4,199.4 138.8,199.4 142.2,199.4 145.6,199.4 149.0,199.4 152.4,199.4 155.8,199.4 159.2,199.4 162.6,199.4 166.0,199.4 169.4,199.4 172.8,199.4 176.2,199.4 179.6,199.4 183.0,199.4 186.4,199.4 189.8,199.4 193.2,199.4 196.6,199.4 200.0,199.4 203.4,199.4 206.8,199.4 210.2,199.4 213.6,199.4 217.0,199.4 220.4,199.4 223.8,199.4 227.2,199.4 230.6,199.4 234.0,199.4 237.4,199.4 240.8,199.4 244.2,199.4 247.6,199.4 251.0,199.4 254.4,199.4 257.8,199.4 261.2,199.4 264.6,199.4 268.0,199.4 271.4,199.4 274.8,199.4 278.2,199.4 281.6,199.4 285.0,199.4 288.4,199.4 291.8,199.4 295.2,199.4 298.6,199.4 302.0,199.4 305.4,199.4 308.8,199.4 312.2,199.4 315.6,199.4 319.0,199.4 322.4,199.4 325.8,199.4 329.2,199.4 332.6,199.4 336.0,199.4 339.4,199.4 342.8,199.4 346.2,199.4 349.6,199.4 353.0,199.4 356.4,199.4 359.8,199.4 363.2,199.4 366.6,199.4 370.0,199.4"/><polyline fill="none" stroke="#f97316" stroke-width="2" points="33.4,199.4 36.8,199.4 40.2,199.4 43.6,199.4 47.0,199.4 50.4,199.4 53.8,199.4 57.2,199.4 60.6,199.4 64.0,199.4 67.4,199.4 70.8,199.4 74.2,199.4 77.6,199.4 81.0,199.4 84.4,199.4 87.8,199.4 91.2,199.4 94.6,199.4 98.0,199.4 101.4,199.4 104.8,199.4 108.2,199.4 111.6,199.4 115.0,199.4 118.4,199.4 121.8,199.4 125.2,199.4 128.6,199.4 132.0,199.4 135.4,199.4 138.8,199.4 142.2,199.4 145.6,199.4 149.0,199.4 152.4,199.4 155.8,199.4 159.2,199.4 162.6,199.4 166.0,199.4 169.4,199.4 172.8,199.4 176.2,199.4 179.6,199.4 183.0,199.4 186.4,199.4 189.8,199.4 193.2,199.4 196.6,199.4 200.0,199.4 203.4,199.4 206.8,199.4 210.2,199.4 213.6,199.4 217.0,199.4 220.4,199.4 223.8,199.4 227.2,199.4 230.6,199.4 234.0,199.4 237.4,199.4 240.8,199.4 244.2,199.4 247.6,199.4 251.0,199.4 254.4,199.4 257.8,199.4 261.2,199.4 264.6,199.4 268.0,199.4 271.4,199.4 274.8,199.4 278.2,199.4 281.6,199.4 285.0,199.4 288.4,199.4 291.8,199.4 295.2,199.4 298.6,199.4 302.0,199.4 305.4,199.4 308.8,199.4 312.2,199.4 315.6,199.4 319.0,199.4 322.4,199.4 325.8,199.4 329.2,199.4 332.6,199.4 336.0,199.4 339.4,199.4 342.8,199.4 346.2,199.4 349.6,199.4 353.0,199.4 356.4,199.4 359.8,199.4 363.2,199.4 366.6,199.4 370.0,199.4"/><polyline fill="none" stroke="#ef4444" stroke-width="2" points="33.4,199.4 36.8,199.4 40.2,199.4 43.6,199.4 47.0,199.4 50.4,199.4 53.8,199.4 57.2,199.4 60.6,199.4 64.0,199.4 67.4,199.4 70.8,199.4 74.2,199.4 77.6,199.4 81.0,199.4 84.4,199.4 87.8,199.4 91.2,199.4 94.6,199.4 98.0,199.4 101.4,199.4 104.8,199.4 108.2,199.4 111.6,199.4 115.0,199.4 118.4,199.4 121.8,199.4 125.2,199.4 128.6,199.4 132.0,199.4 135.4,199.4 138.8,199.4 142.2,199.4 145.6,199.4 149.0,199.4 152.4,199.4 155.8,199.4 159.2,199.4 162.6,199.4 166.0,199.4 169.4,199.4 172.8,199.4 176.2,199.4 179.6,199.4 183.0,199.4 186.4,199.4 189.8,199.4 193.2,199.4 196.6,199.4 200.0,199.4 203.4,199.4 206.8,199.4 210.2,199.4 213.6,199.4 217.0,199.4 220.4,199.4 223.8,199.4 227.2,199.4 230.6,199.4 234.0,199.4 237.4,199.4 240.8,199.4 244.2,199.4 247.6,199.4 251.0,199.4 254.4,199.4 257.8,199.4 261.2,199.4 264.6,199.4 268.0,199.4 271.4,199.4 274.8,199.4 278.2,199.4 281.6,199.4 285.0,199.4 288.4,199.4 291.8,199.4 295.2,199.4 298.6,199.4 302.0,199.4 305.4,199.4 308.8,199.4 312.2,199.4 315.6,199.4 319.0,199.4 322.4,199.4 325.8,199.4 329.2,199.4 332.6,199.4 336.0,199.4 339.4,199.4 342.8,199.4 346.2,199.4 349.6,199.4 353.0,199.4 356.4,199.4 359.8,199.4 363.2,199.4 366.6,199.4 370.0,199.4"/>
        
        <!-- Legend -->
        <circle cx="40" cy="235" r="4" fill="#38bdf8"/><text x="48" y="238" fill="#e2e8f0" font-size="9">0.0%</text><circle cx="105" cy="235" r="4" fill="#10b981"/><text x="113" y="238" fill="#e2e8f0" font-size="9">1.0%</text><circle cx="170" cy="235" r="4" fill="#f59e0b"/><text x="178" y="238" fill="#e2e8f0" font-size="9">2.0%</text><circle cx="235" cy="235" r="4" fill="#f97316"/><text x="243" y="238" fill="#e2e8f0" font-size="9">5.0%</text><circle cx="300" cy="235" r="4" fill="#ef4444"/><text x="308" y="238" fill="#e2e8f0" font-size="9">10.0%</text>
      </g>

      <!-- Panel 2: Scan Cost (μs/key) across Progress -->
      <g transform="translate(470, 60)">
        <rect width="380" height="260" rx="8" fill="#1e293b" stroke="#334155"/>
        <text x="190" y="25" fill="#38bdf8" font-size="13" font-weight="bold" text-anchor="middle">Scan Cost (μs/key) vs Request Progress</text>
        <line x1="30" y1="200" x2="370" y2="200" stroke="#64748b"/>
        <line x1="30" y1="40" x2="30" y2="200" stroke="#64748b"/>
        <polyline fill="none" stroke="#38bdf8" stroke-width="2" points="33.4,199.1 36.8,199.2 40.2,199.3 43.6,199.4 47.0,199.4 50.4,199.4 53.8,199.5 57.2,199.5 60.6,199.5 64.0,199.6 67.4,199.6 70.8,199.6 74.2,199.6 77.6,199.6 81.0,199.6 84.4,199.6 87.8,199.6 91.2,199.6 94.6,199.6 98.0,199.6 101.4,199.7 104.8,199.7 108.2,199.7 111.6,199.7 115.0,199.7 118.4,199.7 121.8,199.7 125.2,199.7 128.6,199.7 132.0,199.7 135.4,199.7 138.8,199.7 142.2,199.7 145.6,199.7 149.0,199.7 152.4,199.7 155.8,199.7 159.2,199.7 162.6,199.7 166.0,199.7 169.4,199.7 172.8,199.7 176.2,199.7 179.6,199.7 183.0,199.7 186.4,199.7 189.8,199.7 193.2,199.7 196.6,199.7 200.0,199.7 203.4,199.7 206.8,199.7 210.2,199.7 213.6,199.7 217.0,199.7 220.4,199.7 223.8,199.7 227.2,199.7 230.6,199.7 234.0,199.7 237.4,199.7 240.8,199.7 244.2,199.7 247.6,199.7 251.0,199.6 254.4,199.6 257.8,199.6 261.2,199.6 264.6,199.6 268.0,199.6 271.4,199.6 274.8,199.6 278.2,199.6 281.6,199.6 285.0,199.6 288.4,199.6 291.8,199.6 295.2,199.7 298.6,199.6 302.0,199.6 305.4,199.6 308.8,199.6 312.2,199.6 315.6,199.7 319.0,199.7 322.4,199.7 325.8,199.7 329.2,199.7 332.6,199.7 336.0,199.7 339.4,199.7 342.8,199.6 346.2,199.6 349.6,199.6 353.0,199.6 356.4,199.6 359.8,199.6 363.2,199.6 366.6,199.6 370.0,199.6"/><polyline fill="none" stroke="#10b981" stroke-width="2" points="33.4,199.0 36.8,199.2 40.2,199.3 43.6,199.4 47.0,199.4 50.4,199.4 53.8,199.5 57.2,199.5 60.6,199.5 64.0,199.5 67.4,199.5 70.8,199.6 74.2,199.6 77.6,199.6 81.0,199.6 84.4,199.6 87.8,199.6 91.2,199.6 94.6,199.6 98.0,199.6 101.4,199.6 104.8,199.6 108.2,199.6 111.6,199.6 115.0,199.6 118.4,199.6 121.8,199.6 125.2,199.5 128.6,199.6 132.0,199.6 135.4,199.6 138.8,199.5 142.2,199.6 145.6,199.5 149.0,199.6 152.4,199.6 155.8,199.5 159.2,199.5 162.6,199.5 166.0,199.5 169.4,199.5 172.8,199.5 176.2,199.5 179.6,199.5 183.0,199.4 186.4,199.5 189.8,199.5 193.2,199.5 196.6,199.5 200.0,199.4 203.4,199.4 206.8,199.4 210.2,199.4 213.6,199.3 217.0,199.4 220.4,199.4 223.8,199.3 227.2,199.3 230.6,199.2 234.0,199.2 237.4,199.1 240.8,198.9 244.2,199.1 247.6,198.9 251.0,198.9 254.4,199.0 257.8,198.9 261.2,198.6 264.6,198.7 268.0,198.5 271.4,198.5 274.8,198.4 278.2,198.5 281.6,198.2 285.0,198.5 288.4,198.5 291.8,198.5 295.2,198.5 298.6,198.4 302.0,198.3 305.4,198.4 308.8,198.2 312.2,198.2 315.6,197.7 319.0,198.2 322.4,197.8 325.8,198.0 329.2,197.5 332.6,197.9 336.0,197.7 339.4,198.1 342.8,198.2 346.2,197.9 349.6,197.8 353.0,198.0 356.4,198.0 359.8,198.1 363.2,197.5 366.6,197.9 370.0,197.8"/><polyline fill="none" stroke="#f59e0b" stroke-width="2" points="33.4,199.0 36.8,199.2 40.2,199.3 43.6,199.3 47.0,199.4 50.4,199.4 53.8,199.4 57.2,199.4 60.6,199.4 64.0,199.4 67.4,199.4 70.8,199.4 74.2,199.5 77.6,199.4 81.0,199.4 84.4,199.4 87.8,199.3 91.2,199.3 94.6,199.4 98.0,199.2 101.4,199.2 104.8,199.2 108.2,199.1 111.6,199.2 115.0,199.0 118.4,198.8 121.8,198.7 125.2,198.6 128.6,197.9 132.0,198.1 135.4,198.2 138.8,198.0 142.2,198.0 145.6,197.8 149.0,198.1 152.4,197.8 155.8,197.5 159.2,197.7 162.6,197.9 166.0,197.5 169.4,196.9 172.8,197.1 176.2,197.3 179.6,197.1 183.0,197.7 186.4,197.0 189.8,196.3 193.2,197.2 196.6,197.0 200.0,197.0 203.4,196.6 206.8,196.4 210.2,196.8 213.6,196.7 217.0,196.2 220.4,197.0 223.8,196.5 227.2,196.3 230.6,196.1 234.0,196.2 237.4,196.4 240.8,195.9 244.2,195.6 247.6,194.8 251.0,194.7 254.4,195.7 257.8,196.3 261.2,196.2 264.6,194.8 268.0,194.6 271.4,195.5 274.8,195.6 278.2,194.3 281.6,193.6 285.0,194.0 288.4,193.6 291.8,194.0 295.2,193.6 298.6,194.6 302.0,192.6 305.4,195.5 308.8,193.8 312.2,194.3 315.6,192.5 319.0,191.3 322.4,194.4 325.8,193.3 329.2,191.1 332.6,192.7 336.0,192.1 339.4,193.1 342.8,190.9 346.2,190.8 349.6,192.6 353.0,190.6 356.4,191.7 359.8,191.1 363.2,191.9 366.6,192.0 370.0,189.6"/><polyline fill="none" stroke="#f97316" stroke-width="2" points="33.4,199.0 36.8,199.1 40.2,199.1 43.6,199.2 47.0,199.2 50.4,199.1 53.8,199.0 57.2,198.8 60.6,198.6 64.0,198.3 67.4,198.0 70.8,197.5 74.2,197.1 77.6,196.4 81.0,196.6 84.4,196.0 87.8,195.6 91.2,195.8 94.6,194.9 98.0,196.1 101.4,194.4 104.8,195.1 108.2,194.1 111.6,194.0 115.0,192.9 118.4,192.8 121.8,192.3 125.2,192.8 128.6,192.7 132.0,191.7 135.4,190.9 138.8,190.6 142.2,190.1 145.6,190.5 149.0,188.8 152.4,187.3 155.8,186.8 159.2,189.7 162.6,186.4 166.0,188.2 169.4,186.6 172.8,184.8 176.2,182.6 179.6,182.7 183.0,181.2 186.4,181.7 189.8,180.2 193.2,177.2 196.6,176.8 200.0,182.6 203.4,170.7 206.8,170.8 210.2,168.9 213.6,173.0 217.0,170.7 220.4,168.5 223.8,173.9 227.2,169.3 230.6,168.1 234.0,172.4 237.4,170.6 240.8,168.4 244.2,164.8 247.6,170.4 251.0,166.2 254.4,165.5 257.8,156.5 261.2,163.4 264.6,169.4 268.0,167.3 271.4,148.2 274.8,148.0 278.2,152.8 281.6,147.7 285.0,151.6 288.4,137.7 291.8,146.1 295.2,149.5 298.6,147.9 302.0,131.1 305.4,139.5 308.8,131.0 312.2,119.5 315.6,130.1 319.0,136.4 322.4,124.3 325.8,110.1 329.2,120.9 332.6,136.2 336.0,110.4 339.4,112.7 342.8,89.6 346.2,99.5 349.6,109.2 353.0,81.8 356.4,54.0 359.8,29.2 363.2,83.1 366.6,94.5 370.0,81.8"/><polyline fill="none" stroke="#ef4444" stroke-width="2" points="33.4,198.9 36.8,198.9 40.2,198.7 43.6,198.6 47.0,198.1 50.4,197.3 53.8,196.1 57.2,195.3 60.6,193.3 64.0,192.7 67.4,191.6 70.8,191.4 74.2,189.9 77.6,188.4 81.0,187.2 84.4,186.6 87.8,185.6 91.2,180.6 94.6,182.5 98.0,178.2 101.4,177.5 104.8,175.1 108.2,173.0 111.6,171.7 115.0,176.8 118.4,173.2 121.8,158.7 125.2,160.3 128.6,155.7 132.0,147.9 135.4,131.7 138.8,132.5 142.2,142.7 145.6,125.3 149.0,123.0 152.4,105.9 155.8,123.3 159.2,111.6 162.6,78.8 166.0,82.0 169.4,71.3 172.8,97.0 176.2,74.9 179.6,53.1 183.0,37.9 186.4,44.2 189.8,-0.9 193.2,20.7 196.6,17.8 200.0,-4.7 203.4,-26.5 206.8,-51.0 210.2,-27.8 213.6,-43.2 217.0,-43.2 220.4,-77.8 223.8,-90.1 227.2,-173.8 230.6,-137.5 234.0,-187.7 237.4,-150.9 240.8,-287.9 244.2,-294.9 247.6,-158.6 251.0,-395.9 254.4,-360.4 257.8,-298.9 261.2,-369.7 264.6,-485.5 268.0,-524.7 271.4,-372.3 274.8,-546.9 278.2,-682.7 281.6,-492.8 285.0,-734.1 288.4,-805.9 291.8,-694.9 295.2,-685.4 298.6,-1084.0 302.0,-1103.2 305.4,-945.4 308.8,-1480.1 312.2,-1176.2 315.6,-1409.5 319.0,-1400.3 322.4,-1079.8 325.8,-1998.7 329.2,-2393.6 332.6,-1911.6 336.0,-2804.6 339.4,-3001.4 342.8,-2149.1 346.2,-2532.3 349.6,-1789.2 353.0,-3407.8 356.4,-2333.5 359.8,-2342.3 363.2,-2637.2 366.6,-2504.1 370.0,-3426.5"/>
        
        <!-- Legend -->
        <circle cx="40" cy="235" r="4" fill="#38bdf8"/><text x="48" y="238" fill="#e2e8f0" font-size="9">0.0%</text><circle cx="105" cy="235" r="4" fill="#10b981"/><text x="113" y="238" fill="#e2e8f0" font-size="9">1.0%</text><circle cx="170" cy="235" r="4" fill="#f59e0b"/><text x="178" y="238" fill="#e2e8f0" font-size="9">2.0%</text><circle cx="235" cy="235" r="4" fill="#f97316"/><text x="243" y="238" fill="#e2e8f0" font-size="9">5.0%</text><circle cx="300" cy="235" r="4" fill="#ef4444"/><text x="308" y="238" fill="#e2e8f0" font-size="9">10.0%</text>
      </g>
    </svg>